<?xml version="1.0" standalone="no"?>
<!DOCTYPE svg PUBLIC "-//W3C//DTD SVG 20010904//EN"
 "http://www.w3.org/TR/2001/REC-SVG-20010904/DTD/svg10.dtd">
<svg version="1.0" xmlns="http://www.w3.org/2000/svg"
 width="896.000000pt" height="896.000000pt" viewBox="0 0 896.000000 896.000000"
 preserveAspectRatio="xMidYMid meet">
<metadata>
Created by potrace 1.14, written by Peter Selinger 2001-2017
</metadata>
<g transform="translate(0.000000,896.000000) scale(0.100000,-0.100000)"
fill="#000000" stroke="none">
<path d="M4365 8802 c-1 -2 -49 -5 -106 -8 -110 -5 -149 -8 -214 -17 -22 -4
-62 -9 -90 -12 -27 -3 -57 -7 -65 -9 -8 -3 -33 -7 -54 -11 -21 -3 -48 -7 -60
-10 -12 -3 -32 -7 -46 -9 -14 -2 -47 -10 -75 -16 -27 -7 -57 -13 -65 -15 -8
-2 -15 -4 -15 -5 0 -2 -14 -5 -55 -13 -50 -10 -289 -88 -347 -113 -17 -8 -34
-14 -38 -14 -4 0 -21 -6 -38 -14 -18 -8 -57 -24 -87 -37 -94 -40 -372 -183
-448 -232 -40 -26 -77 -47 -82 -47 -6 0 -10 -4 -10 -10 0 -5 -5 -10 -10 -10
-6 0 -16 -4 -23 -10 -7 -5 -66 -49 -131 -96 -66 -47 -147 -109 -182 -138 -34
-30 -70 -60 -79 -67 -40 -33 -314 -309 -361 -364 -29 -33 -81 -98 -118 -145
-36 -47 -70 -90 -76 -97 -5 -7 -10 -17 -10 -23 0 -5 -3 -10 -7 -10 -5 0 -26
-28 -48 -63 -22 -34 -43 -63 -47 -65 -5 -2 -8 -10 -8 -17 0 -8 -6 -20 -13 -27
-7 -7 -30 -42 -50 -78 -21 -36 -42 -72 -47 -80 -5 -8 -17 -32 -26 -52 -9 -21
-20 -38 -25 -38 -5 0 -9 -5 -9 -11 0 -6 -23 -58 -50 -116 -28 -57 -50 -106
-50 -107 0 -2 -7 -20 -15 -40 -8 -20 -14 -37 -13 -38 1 -2 -5 -16 -14 -33 -45
-81 -155 -449 -183 -607 -10 -54 -15 -83 -19 -103 -7 -37 -19 -110 -22 -140
-2 -16 -6 -48 -8 -70 -20 -176 -26 -497 -13 -675 13 -158 15 -176 32 -285 3
-16 7 -41 9 -55 2 -14 7 -43 11 -65 4 -22 9 -47 10 -55 2 -8 16 -67 31 -130
15 -63 29 -117 29 -120 1 -3 7 -23 13 -45 6 -22 11 -43 12 -48 0 -4 6 -21 15
-37 8 -16 14 -33 14 -37 -1 -4 1 -15 4 -23 3 -8 24 -62 46 -120 71 -191 166
-387 269 -560 65 -109 167 -265 182 -280 3 -3 31 -39 62 -81 31 -42 67 -88 80
-102 13 -14 38 -45 57 -69 36 -45 614 -622 1671 -1668 347 -344 741 -734 875
-867 l245 -243 184 183 c1461 1443 2555 2533 2612 2602 27 32 57 67 67 77 9
10 17 20 17 23 0 3 8 13 18 24 51 55 260 363 302 448 8 16 21 36 29 46 8 9 11
17 7 17 -4 0 1 12 12 28 33 46 127 248 178 382 14 36 29 74 34 85 9 22 83 254
86 270 1 6 9 38 18 72 31 116 69 314 70 361 1 12 3 22 6 22 3 0 5 12 6 28 0
15 4 54 8 87 16 137 20 220 19 405 0 107 -3 224 -6 260 -4 36 -9 88 -11 115
-10 103 -21 186 -32 235 -3 14 -7 39 -9 55 -3 17 -7 39 -10 50 -7 31 -36 158
-40 180 -3 11 -14 52 -26 90 -11 39 -22 77 -24 85 -2 8 -4 15 -5 15 -1 0 -3 7
-5 15 -5 21 -64 188 -79 225 -86 203 -203 442 -231 475 -8 8 -14 20 -14 25 -1
6 -43 73 -94 149 -50 76 -96 146 -102 155 -5 9 -16 20 -22 24 -7 4 -13 14 -13
22 0 7 -4 15 -8 17 -4 2 -29 30 -55 63 -111 138 -298 336 -417 441 -96 84
-170 147 -193 163 -12 8 -28 21 -35 28 -7 7 -26 20 -42 30 -17 9 -30 21 -30
25 0 4 -6 8 -14 8 -8 0 -16 4 -18 9 -1 4 -48 37 -103 73 -156 101 -201 128
-213 128 -5 0 -12 4 -14 8 -3 8 -310 165 -331 170 -4 1 -24 9 -45 17 -74 32
-301 114 -324 119 -13 2 -43 11 -68 19 -46 16 -120 36 -153 43 -10 2 -27 6
-37 9 -20 6 -48 12 -95 20 -16 3 -52 10 -80 15 -83 17 -90 18 -146 25 -30 4
-70 9 -89 11 -74 10 -138 15 -220 20 -116 6 -331 10 -335 6z m325 -2165 c14
-3 39 -8 55 -11 26 -4 58 -11 100 -20 65 -15 82 -20 93 -28 6 -6 12 -8 12 -4
0 3 17 -1 38 -10 20 -9 42 -17 47 -18 34 -7 205 -97 285 -151 206 -139 348
-291 477 -510 49 -82 129 -274 137 -327 1 -7 5 -19 10 -26 4 -7 6 -16 3 -19
-3 -3 -2 -16 3 -29 38 -98 47 -443 17 -589 -10 -44 -19 -90 -21 -102 -24 -122
-151 -395 -237 -508 -155 -202 -329 -351 -532 -456 -71 -36 -195 -88 -222 -93
-5 -1 -23 -7 -40 -13 -28 -12 -141 -36 -230 -51 -52 -8 -347 -8 -405 0 -118
17 -256 52 -345 88 -325 131 -592 357 -760 645 -31 54 -95 180 -95 188 0 3 -4
16 -9 29 -5 13 -8 25 -8 28 0 3 -6 16 -13 30 -13 25 -18 43 -46 165 -24 104
-28 156 -28 310 -1 141 4 202 23 285 5 25 12 56 14 70 8 41 66 207 94 268 25
54 120 217 142 245 78 96 115 139 147 172 58 59 162 149 184 159 11 5 20 13
20 18 0 4 4 8 9 8 5 0 36 18 69 40 33 22 64 40 69 40 6 0 21 8 34 19 13 10 27
19 31 20 4 1 25 9 45 18 21 9 40 17 43 18 3 1 22 9 44 18 21 9 42 17 47 17 5
0 29 7 55 16 25 9 55 17 66 19 11 2 27 6 36 9 26 8 72 16 126 21 28 3 52 7 54
10 6 5 333 -2 362 -8z"/>
</g>
</svg>
